<?xml version="1.0" encoding="UTF-8"?>
<svg width="156px" height="156px" viewBox="0 0 156 156" version="1.1" xmlns="http://www.w3.org/2000/svg" xmlns:xlink="http://www.w3.org/1999/xlink">
    <!-- Generator: Sketch 52.2 (67145) - http://www.bohemiancoding.com/sketch -->
    <title>Group 2</title>
    <desc>Created with Sketch.</desc>
    <defs>
        <linearGradient x1="49.9967889%" y1="0%" x2="49.9967889%" y2="100%" id="linearGradient-1">
            <stop stop-color="#4354ED" stop-opacity="0.9" offset="0%"></stop>
            <stop stop-color="#404CF0" offset="100%"></stop>
        </linearGradient>
    </defs>
    <g id="Page-1" stroke="none" stroke-width="1" fill="none" fill-rule="evenodd">
        <g id="Pinme---logo---color">
            <g id="Group-2">
                <path d="M113.57,156 L42.13,156 C18.8918725,155.928624 0.0713757337,137.108128 -2.84217094e-14,113.87 L-2.84217094e-14,42.43 C0.0658878353,19.1879674 18.8879836,0.36140392 42.13,0.29 L113.57,0.29 C136.815922,0.355915109 155.644085,19.1840783 155.71,42.43 L155.71,113.87 C155.638596,137.112016 136.812033,155.934112 113.57,156 Z" id="Path" fill="url(#linearGradient-1)"></path>
                <path d="M50.55,127.44 C42.5249951,127.423518 36.0219996,120.924992 36,112.9 L36,93.75 C36.0219757,85.7289 42.5189,79.2319757 50.54,79.21 C58.5571945,79.2374639 65.0480519,85.7327885 65.07,93.75 L65.07,112.9 C65.0480832,120.913326 58.5632884,127.407053 50.55,127.44 Z" id="Path" fill="#05D2DD"></path>
                <path d="M98.42,28.85 L57.29,28.85 C45.5471548,28.8774674 36.0329844,38.387169 36,50.13 L36,69.41 L36,109.76 C40.25,97.05 65.07,96.94 65.07,96.94 L98.41,96.94 C110.151214,96.9125093 119.662509,87.4012136 119.69,75.66 L119.69,50.13 C119.657068,38.3949485 110.155035,28.8884476 98.42,28.85 Z" id="Path" fill="#FFFFFF"></path>
                <path d="M87.79,45.88 L67.92,45.88 C62.0544175,45.8964507 57.3019661,50.6444355 57.28,56.51 L57.28,84.88 C58.93,79.97 68.53,79.93 68.53,79.93 L87.79,79.93 C93.6594701,79.9135203 98.4135203,75.1594701 98.43,69.29 L98.43,56.51 C98.4080339,50.6444355 93.6555825,45.8964507 87.79,45.88 Z" id="Path" fill="#05D2DD"></path>
            </g>
        </g>
    </g>
</svg>